<svg width="16" height="18" viewBox="0 0 16 18" fill="currentColor" xmlns="http://www.w3.org/2000/svg">
<path d="M10.8571 5.0625C10.8571 5.99448 10.1016 6.75 9.16964 6.75H6.83036C5.89838 6.75 5.14286 5.99448 5.14286 5.0625C5.14286 3.50859 6.42143 2.25 8 2.25C9.57857 2.25 10.8571 3.50859 10.8571 5.0625ZM13.7143 6.75C13.3987 6.75 13.1429 6.49416 13.1429 6.17857V5.0625C13.1429 2.26758 10.8393 0 8 0C5.16071 0 2.85714 2.26758 2.85714 5.0625V6.17857C2.85714 6.49416 2.60131 6.75 2.28571 6.75C1.025 6.75 0 7.75898 0 9V15.75C0 16.991 1.025 18 2.28571 18H13.7143C14.975 18 16 16.991 16 15.75V9C16 7.75898 14.975 6.75 13.7143 6.75Z" fill="currentColor"/>
</svg>
